/* XPM */
static char * close_inactive_xpm[] = {
"28 28 23 1",
" 	g #F2F2F2",
".	g #ECECEC",
"+	g #D0D0D0",
"@	g #BCBCBC",
"#	g #B2B2B2",
"$	g #D1D1D1",
"%	g #DCDCDC",
"&	g #B3B3B3",
"*	g #AFAFAF",
"=	g #B4B4B4",
"-	g #F0F0F0",
";	g #D8D8D8",
">	g #B0B0B0",
",	g #D6D6D6",
"'	g #F1F1F1",
")	g #D2D2D2",
"!	g #DADADA",
"~	g #D9D9D9",
"{	g #D3D3D3",
"]	g #D4D4D4",
"^	g #B1B1B1",
"/	g #CFCFCF",
"(	g #DDDDDD",
"                            ",
"                            ",
"                            ",
"                            ",
"                            ",
"                            ",
"                            ",
"          .+@##@$.          ",
"         %&******&%         ",
"        %**********%        ",
"       .&**=****=**=.       ",
"       +***-;>>,'***$       ",
"       @***) !~ {***@       ",
"       &****)  ]****&       ",
"       &***>~  %^***=       ",
"       @***; $$ ~***@       ",
"       $***./**/.***+       ",
"       .&**********=.       ",
"        %**********(        ",
"         %=******=(         ",
"          .$@&&@+.          ",
"                            ",
"                            ",
"                            ",
"                            ",
"                            ",
"                            ",
"                            "};
