/* XPM */
static char * hide_pressed_xpm[] = {
"28 28 19 1",
" 	g #F2F2F2",
".	g #F0F0F0",
"+	g #D1D1D1",
"@	g #B3B3B3",
"#	g #9F9F9F",
"$	g #959595",
"%	g #D2D2D2",
"&	g #9E9E9E",
"*	g #919191",
"=	g #D3D3D3",
"-	g #BDBDBD",
";	g #F1F1F1",
">	g #BEBEBE",
",	g #B2B2B2",
"'	g #969696",
")	g #FFFFFF",
"!	g #A0A0A0",
"~	g #B4B4B4",
"{	g #D4D4D4",
"                            ",
"                            ",
"                            ",
"                            ",
"         .+@#$$#@%.         ",
"        %&********#=        ",
"      .-************-;      ",
"      -**************>      ",
"     %****************=     ",
"    .#****************&.    ",
"    +******************%    ",
"    ,******************@    ",
"    &******************#    ",
"    '*****))))))))*****'    ",
"    '*****))))))))*****'    ",
"    #******************!    ",
"    @******************~    ",
"    %******************=    ",
"    .#****************&.    ",
"     =****************{     ",
"      -**************>      ",
"      ;>************>;      ",
"        =#********#{        ",
"         .%@!''!@=.         ",
"                            ",
"                            ",
"                            ",
"                            "};
