/* XPM */
static char * maximize_active_xpm[] = {
"28 28 12 1",
" 	c #5D5D5D",
".	c #787878",
"+	c #797979",
"@	c #898989",
"#	c #8D8D8D",
"$	c #909090",
"%	c #C2C2C2",
"&	c #EEEEEE",
"*	c #F0F0F0",
"=	c #F1F1F1",
"-	c #F2F2F2",
";	c #F9F9F9",
"----------------------------",
"----------------------------",
"----------------------------",
"----------------------------",
"----------------------------",
"----------------------------",
"----------------------------",
"----------------------------",
"----------------------------",
"----------------------------",
"----------------------------",
"------------&#  +-----------",
"-----------&-&#  -----------",
"----------=@&-*$ -----------",
"----------= @&-*$-----------",
"----------=  #&-&-----------",
"-----------.  #&------------",
"----------------------------",
"----------------------------",
"----------------------------",
"----------------------------",
"----------------------------",
"----------------------------",
"----------------------------",
"----------------------------",
"----------------------------",
"----------------------------",
"----------------------------"};
