/* XPM */
static char * maximize_inactive_xpm[] = {
"28 28 9 1",
" 	c #AFAFAF",
".	c #BCBCBC",
"+	c #C2C2C2",
"@	c #C4C4C4",
"#	c #C6C6C6",
"$	c #F0F0F0",
"%	c #F1F1F1",
"&	c #F2F2F2",
"*	c #F9F9F9",
"&&&&&&&&&&&&&&&&&&&&&&&&&&&&",
"&&&&&&&&&&&&&&&&&&&&&&&&&&&&",
"&&&&&&&&&&&&&&&&&&&&&&&&&&&&",
"&&&&&&&&&&&&&&&&&&&&&&&&&&&&",
"&&&&&&&&&&&&&&&&&&&&&&&&&&&&",
"&&&&&&&&&&&&&&&&&&&&&&&&&&&&",
"&&&&&&&&&&&&&&&&&&&&&&&&&&&&",
"&&&&&&&&&&&&&&&&&&&&&&&&&&&&",
"&&&&&&&&&&&&&&&&&&&&&&&&&&&&",
"&&&&&&&&&&&&&&&&&&&&&&&&&&&&",
"&&&&&&&&&&&&&&&&&&&&&&&&&&&&",
"&&&&&&&&&&&&$#  .&&&&&&&&&&&",
"&&&&&&&&&&&$&$#  &&&&&&&&&&&",
"&&&&&&&&&&%@$&%# &&&&&&&&&&&",
"&&&&&&&&&&% @$&%#&&&&&&&&&&&",
"&&&&&&&&&&%  #$&$&&&&&&&&&&&",
"&&&&&&&&&&&.  #$&&&&&&&&&&&&",
"&&&&&&&&&&&&&&&&&&&&&&&&&&&&",
"&&&&&&&&&&&&&&&&&&&&&&&&&&&&",
"&&&&&&&&&&&&&&&&&&&&&&&&&&&&",
"&&&&&&&&&&&&&&&&&&&&&&&&&&&&",
"&&&&&&&&&&&&&&&&&&&&&&&&&&&&",
"&&&&&&&&&&&&&&&&&&&&&&&&&&&&",
"&&&&&&&&&&&&&&&&&&&&&&&&&&&&",
"&&&&&&&&&&&&&&&&&&&&&&&&&&&&",
"&&&&&&&&&&&&&&&&&&&&&&&&&&&&",
"&&&&&&&&&&&&&&&&&&&&&&&&&&&&",
"&&&&&&&&&&&&&&&&&&&&&&&&&&&&"};
