/* XPM */
static char * close_inactive_xpm[] = {
"28 28 23 1",
" 	c #1A1A1A",
".	c #1F1F1F",
"+	c #3C3C3C",
"@	c #4F4F4F",
"#	c #585858",
"$	c #303030",
"%	c #5C5C5C",
"&	c #5B5B5B",
"*	c #575757",
"=	c #1C1C1C",
"-	c #343434",
";	c #353535",
">	c #3B3B3B",
",	c #505050",
"'	c #3A3A3A",
")	c #323232",
"!	c #333333",
"~	c #383838",
"{	c #393939",
"]	c #373737",
"^	c #313131",
"/	c #5A5A5A",
"(	c #2F2F2F",
"                            ",
"                            ",
"                            ",
"                            ",
"                            ",
"                            ",
"                            ",
"          .+@##@+.          ",
"         $#%%%%%%#$         ",
"        $&%%%%%%%%&$        ",
"       .#%%*%%%%#%%#.       ",
"       +%%%=-&&; %%%>       ",
"       ,%%%' )! ~%%%@       ",
"       #%%%%{  ]%%%%#       ",
"       #%%%&)  ^/%%%#       ",
"       @%%%! >> !%%%@       ",
"       +%%%.+%%+.%%%>       ",
"       .#%%%%%%%%%%*.       ",
"        $&%%%%%%%%&(        ",
"         $#%%%%%%*(         ",
"          .>@##@>.          ",
"                            ",
"                            ",
"                            ",
"                            ",
"                            ",
"                            ",
"                            "};
