/* XPM */
static char * close_pressed_xpm[] = {
"28 28 51 1",
" 	c #1A1A1A",
".	c #1C1D1C",
"+	c #3D4E3B",
"@	c #5D7E58",
"#	c #719C6B",
"$	c #7CAD76",
"%	c #3D4E3A",
"&	c #3C4D3A",
"*	c #739F6D",
"=	c #81B47A",
"-	c #3B4C39",
";	c #1C1C1B",
">	c #536F4F",
",	c #526E4E",
"'	c #1B1B1B",
")	c #516D4E",
"!	c #3A4A38",
"~	c #73A06D",
"{	c #1B1B1A",
"]	c #323E30",
"^	c #78A772",
"/	c #7AA973",
"(	c #334032",
"_	c #2C352B",
":	c #79A872",
"<	c #2D372C",
"[	c #2A3229",
"}	c #5C7D57",
"|	c #729D6C",
"1	c #76A370",
"2	c #282F27",
"3	c #272E26",
"4	c #74A06E",
"5	c #7CAD75",
"6	c #77A571",
"7	c #2B332A",
"8	c #262C25",
"9	c #78A671",
"0	c #293128",
"a	c #7EB078",
"b	c #77A671",
"c	c #2C342B",
"d	c #729E6C",
"e	c #2E382D",
"f	c #5C7D58",
"g	c #74A16E",
"h	c #394837",
"i	c #526D4E",
"j	c #80B37A",
"k	c #53704F",
"l	c #1C1D1B",
"                            ",
"                            ",
"                            ",
"                            ",
"         .+@#$$#@%.         ",
"        &*========*-        ",
"      ;>============,'      ",
"      >==============)      ",
"     &================!     ",
"    .*================~.    ",
"    +====={]^==/( =====&    ",
"    @=====_ _^:< [=====}    ",
"    |=====12 __ 34=====#    ",
"    5======67  8*======5    ",
"    5======9_  06======a    ",
"    |=====bc [[ [6=====d    ",
"    @=====e [66[ <=====f    ",
"    %====={<6==6< =====&    ",
"    .*================g.    ",
"     -================h     ",
"      ,==============>      ",
"      'i===========jk{      ",
"        !*========*!        ",
"         l&}#5$|}%.         ",
"                            ",
"                            ",
"                            ",
"                            "};
