/* XPM */
static char * maximize_pressed_xpm[] = {
"28 28 39 1",
" 	c #1A1A1A",
".	c #1E1E1E",
"+	c #5C5C5C",
"@	c #989899",
"#	c #BFBFBF",
"$	c #D4D5D5",
"%	c #999999",
"&	c #5A5A5A",
"*	c #C3C3C3",
"=	c #DDDDDD",
"-	c #C2C2C2",
";	c #595959",
">	c #1D1D1D",
",	c #858585",
"'	c #848484",
")	c #1C1C1C",
"!	c #838383",
"~	c #575757",
"{	c #C4C4C4",
"]	c #BBBBBB",
"^	c #2A2A2A",
"/	c #505050",
"(	c #5B5B5B",
"_	c #989898",
":	c #C0C0C0",
"<	c #B9B9B9",
"[	c #BFBFC0",
"}	c #D4D4D4",
"|	c #272727",
"1	c #B5B5B5",
"2	c #BEBEBE",
"3	c #2C2C2C",
"4	c #D2D2D2",
"5	c #282828",
"6	c #B8B8B8",
"7	c #C1C1C1",
"8	c #565656",
"9	c #828282",
"0	c #BEBEBF",
"                            ",
"                            ",
"                            ",
"                            ",
"         .+@#$$#%+.         ",
"        &*========-;        ",
"      >,============')      ",
"      ,==============!      ",
"     &================~     ",
"    .-================{.    ",
"    +=======]^   /=====(    ",
"    @========]^   =====_    ",
"    :=====<===]^  =====[    ",
"    }=====|1===23 =====}    ",
"    }===== |1===23=====4    ",
"    :=====  56===]=====[    ",
"    %=====   56========_    ",
"    +=====/   56=======&    ",
"    .7================*.    ",
"     ;================8     ",
"      '==============9      ",
"      )!============!)      ",
"        ~7========78        ",
"         .(_2}}0_&.         ",
"                            ",
"                            ",
"                            ",
"                            "};
