/* XPM */
static char * close_inactive_xpm[] = {
"28 28 28 1",
" 	c #F2F2F2",
".	c #ECECEC",
"+	c #D1D3D3",
"@	c #BEC0C0",
"#	c #B4B8B7",
"$	c #DCDEDE",
"%	c #B5B9B8",
"&	c #B1B4B4",
"*	c #B2B5B5",
"=	c #B5B8B8",
"-	c #EDEDED",
";	c #F1F1F1",
">	c #D8DADA",
",	c #B1B5B4",
"'	c #D7D8D8",
")	c #BDC0BF",
"!	c #D3D4D4",
"~	c #DADBDB",
"{	c #D9DADA",
"]	c #D4D5D5",
"^	c #D3D5D4",
"/	c #D4D6D6",
"(	c #B2B6B5",
"_	c #DDDEDE",
":	c #D2D4D4",
"<	c #D9DBDA",
"[	c #D1D2D2",
"}	c #ECEDED",
"                            ",
"                            ",
"                            ",
"                            ",
"                            ",
"                            ",
"                            ",
"          .+@##@+.          ",
"         $%&&&&&&%$         ",
"        $*&&&&&&&&*$        ",
"       .%&&=&&&&=&&=-       ",
"       +&&&;>,,';&&&+       ",
"       )&&&! ~{ ]&&&@       ",
"       %&&&&^  /&&&&%       ",
"       %&&&(~  _(&&&=       ",
"       @&&&> :: <&&&@       ",
"       +&&&.[&&[.&&&:       ",
"       .%&&&&&&&&&&=}       ",
"        $*&&&&&&&&*_        ",
"         $=&&&&&&=_         ",
"          -+@##@:}          ",
"                            ",
"                            ",
"                            ",
"                            ",
"                            ",
"                            ",
"                            "};
