/* XPM */
static char * close_pressed_xpm[] = {
"28 28 53 1",
" 	c #F2F2F2",
".	c #F2EDED",
"+	c #F1AFB2",
"@	c #F17379",
"#	c #F14E55",
"$	c #F13841",
"%	c #F1B0B3",
"&	c #F1B3B6",
"*	c #F14A51",
"=	c #F13039",
"-	c #F14A52",
";	c #F2F0F0",
">	c #F1878C",
",	c #F1888D",
"'	c #F18A8F",
")	c #F2B5B8",
"!	c #F14951",
"~	c #F2F1F1",
"{	c #F2C5C7",
"]	c #F14048",
"^	c #F13E46",
"/	c #F1C1C3",
"(	c #F1B1B4",
"_	c #F2D0D2",
":	c #F13F48",
"<	c #F1CDCF",
"[	c #F2D4D5",
"}	c #F1757B",
"|	c #F14D55",
"1	c #F2464E",
"2	c #F2D7D8",
"3	c #F1CFD0",
"4	c #F2DADB",
"5	c #F14850",
"6	c #F13941",
"7	c #F1424B",
"8	c #F2D3D4",
"9	c #F2DCDD",
"0	c #F14149",
"a	c #F2CFD1",
"b	c #F2D5D6",
"c	c #F1444C",
"d	c #F13A43",
"e	c #F1424A",
"f	c #F2D1D3",
"g	c #F2CCCE",
"h	c #F1B2B5",
"i	c #F2EEEE",
"j	c #F14B53",
"k	c #F2B6B9",
"l	c #F28B8F",
"m	c #F1898E",
"n	c #F14E56",
"                            ",
"                            ",
"                            ",
"                            ",
"         .+@#$$#@%.         ",
"        &*========-&        ",
"      ;>============,;      ",
"      >=============='      ",
"     &================)     ",
"    .-================!.    ",
"    +=====~{]==^/ =====(    ",
"    @=====_ _]:< [=====}    ",
"    |=====12 _3 45=====#    ",
"    6======78  9*======6    ",
"    6======0a  bc======d    ",
"    |=====ef [[ [7=====#    ",
"    @=====g [77[ <=====}    ",
"    %=====~<7==7< =====h    ",
"    ij================*.    ",
"     &================k     ",
"      ,==============l      ",
"      ;m============';      ",
"        )j========jk        ",
"         i(}n66n}hi         ",
"                            ",
"                            ",
"                            ",
"                            "};
