/* XPM */
static char * hide_pressed_xpm[] = {
"28 28 32 1",
" 	c #F2F2F2",
".	c #EDF0F0",
"+	c #AFDCD3",
"@	c #72C9B7",
"#	c #4CBDA6",
"$	c #36B59B",
"%	c #B0DCD3",
"&	c #B2DDD4",
"*	c #48BBA4",
"=	c #2EB398",
"-	c #49BBA4",
";	c #B3DED5",
">	c #F0F1F1",
",	c #86CFC0",
"'	c #87D0C1",
")	c #89D0C2",
"!	c #B4DED6",
"~	c #47BBA3",
"{	c #B0DDD4",
"]	c #72C9B8",
"^	c #74C9B8",
"/	c #4ABCA5",
"(	c #37B69C",
"_	c #FFFFFF",
":	c #38B69D",
"<	c #4BBCA5",
"[	c #4DBDA6",
"}	c #B1DDD4",
"|	c #EEF1F0",
"1	c #B5DED6",
"2	c #8AD0C2",
"3	c #88D0C1",
"                            ",
"                            ",
"                            ",
"                            ",
"         .+@#$$#@%.         ",
"        &*========-;        ",
"      >,============'>      ",
"      ,==============)      ",
"     &================!     ",
"    .-================~.    ",
"    +=================={    ",
"    ]==================^    ",
"    /==================#    ",
"    (=====________=====(    ",
"    (=====________=====:    ",
"    <==================[    ",
"    @==================^    ",
"    %==================}    ",
"    |/================*.    ",
"     ;================1     ",
"      '==============2      ",
"      >3============)>      ",
"        !/========/1        ",
"         |{^[(([^}|         ",
"                            ",
"                            ",
"                            ",
"                            "};
