/* XPM */
static char * maximize_active_xpm[] = {
"28 28 11 1",
" 	c #F2F2F2",
".	c #EFEFEF",
"+	c #8F9494",
"@	c #606867",
"#	c #7C8382",
"$	c #F1F1F1",
"%	c #8B9190",
"&	c #EEEEEE",
"*	c #F0F0F0",
"=	c #929797",
"-	c #7B8281",
"                            ",
"                            ",
"                            ",
"                            ",
"                            ",
"                            ",
"                            ",
"                            ",
"                            ",
"                            ",
"                            ",
"            .+@@#           ",
"           . .+@@           ",
"          $%& *=@           ",
"          $@%& *=           ",
"          $@@+. .           ",
"           -@@+.            ",
"                            ",
"                            ",
"                            ",
"                            ",
"                            ",
"                            ",
"                            ",
"                            ",
"                            ",
"                            ",
"                            "};
