/* XPM */
static char * maximize_inactive_xpm[] = {
"28 28 9 1",
" 	c #F2F2F2",
".	c #F1F1F1",
"+	c #C7C9C9",
"@	c #B1B4B4",
"#	c #BEC0C0",
"$	c #C4C7C6",
"%	c #F0F0F0",
"&	c #C8CACA",
"*	c #BDC0BF",
"                            ",
"                            ",
"                            ",
"                            ",
"                            ",
"                            ",
"                            ",
"                            ",
"                            ",
"                            ",
"                            ",
"            .+@@#           ",
"           . .+@@           ",
"          .$% .&@           ",
"          .@$% .&           ",
"          .@@+. .           ",
"           *@@+.            ",
"                            ",
"                            ",
"                            ",
"                            ",
"                            ",
"                            ",
"                            ",
"                            ",
"                            ",
"                            ",
"                            "};
