/* XPM */
static char * maximize_pressed_xpm[] = {
"28 28 42 1",
" 	c #F2F2F2",
".	c #EDF0F0",
"+	c #AFDCD3",
"@	c #72C9B7",
"#	c #4CBDA6",
"$	c #36B59B",
"%	c #B0DCD3",
"&	c #B2DDD4",
"*	c #48BBA4",
"=	c #2EB398",
"-	c #49BBA4",
";	c #B3DED5",
">	c #F0F1F1",
",	c #86CFC0",
"'	c #87D0C1",
")	c #89D0C2",
"!	c #B4DED6",
"~	c #47BBA3",
"{	c #53C0AA",
"]	c #EEF9F7",
"^	c #FFFFFF",
"/	c #C4EAE2",
"(	c #B0DDD4",
"_	c #72C9B8",
":	c #74C9B8",
"<	c #4ABCA5",
"[	c #55C1AB",
"}	c #37B69C",
"|	c #F2FAF9",
"1	c #59C2AD",
"2	c #4FBFA8",
"3	c #EBF8F5",
"4	c #38B69D",
"5	c #4BBCA5",
"6	c #EFF9F7",
"7	c #4DBDA6",
"8	c #C5EAE2",
"9	c #B1DDD4",
"0	c #EEF1F0",
"a	c #B5DED6",
"b	c #8AD0C2",
"c	c #88D0C1",
"                            ",
"                            ",
"                            ",
"                            ",
"         .+@#$$#@%.         ",
"        &*========-;        ",
"      >,============'>      ",
"      ,==============)      ",
"     &================!     ",
"    .-================~.    ",
"    +======={]^^^/=====(    ",
"    _========{]^^^=====:    ",
"    <=====[==={]^^=====#    ",
"    }=====|1===23^=====}    ",
"    }=====^|1===23=====4    ",
"    5=====^^6[==={=====7    ",
"    @=====^^^6[========:    ",
"    %=====8^^^6[=======9    ",
"    0<================*.    ",
"     ;================a     ",
"      '==============b      ",
"      >c============)>      ",
"        !<========<a        ",
"         0(:7}}7:90         ",
"                            ",
"                            ",
"                            ",
"                            "};
