/* XPM */
static char * close_pressed_xpm[] = {
"28 28 47 1",
" 	c #F2F2F2",
".	c #EFF0EF",
"+	c #CBDCC9",
"@	c #A8C9A3",
"#	c #92BD8C",
"$	c #85B67F",
"%	c #CCDDC9",
"&	c #CDDECB",
"*	c #90BC8A",
"=	c #81B47A",
"-	c #F1F1F0",
";	c #B4D0B0",
">	c #F1F1F1",
",	c #B5D1B2",
"'	c #CEDECC",
")	c #8FBC89",
"!	c #F2F2F1",
"~	c #D8E4D6",
"{	c #8AB984",
"]	c #89B882",
"^	c #D5E2D4",
"/	c #CCDDCA",
"(	c #DEE7DD",
"_	c #8AB983",
":	c #DCE6DB",
"<	c #E0E8DF",
"[	c #A9CAA4",
"}	c #8EBB88",
"|	c #E2E9E1",
"1	c #DDE6DC",
"2	c #E4EBE3",
"3	c #8FBB89",
"4	c #86B77F",
"5	c #8CBA86",
"6	c #E5EBE4",
"7	c #8BB984",
"8	c #E1E9E0",
"9	c #8DBB87",
"0	c #87B780",
"a	c #8BBA85",
"b	c #DFE7DE",
"c	c #F0F1EF",
"d	c #91BD8B",
"e	c #CFDFCD",
"f	c #B6D1B2",
"g	c #B5D0B1",
"h	c #93BE8D",
"                            ",
"                            ",
"                            ",
"                            ",
"         .+@#$$#@%.         ",
"        &*========*&        ",
"      -;============;>      ",
"      ;==============,      ",
"     &================'     ",
"    .*================).    ",
"    +=====!~{==]^ =====/    ",
"    @=====( ({_: <=====[    ",
"    #=====}| (1 23=====#    ",
"    4======5<  6*======4    ",
"    4======7(  89======0    ",
"    #=====ab << <5=====#    ",
"    @=====: <55< :=====[    ",
"    %=====!:5==5: =====/    ",
"    cd================*.    ",
"     &================e     ",
"      ;==============f      ",
"      >g============,>      ",
"        'd========de        ",
"         c/[h44h[/c         ",
"                            ",
"                            ",
"                            ",
"                            "};
