/* XPM */
static char * close_active_xpm[] = {
"28 28 40 1",
" 	c #C2C2C2",
".	c #F2C0C3",
"+	c #F2C1C3",
"@	c #F2C2C4",
"#	c #F2C3C5",
"$	c #F2E5E6",
"%	c #F2E6E6",
"&	c #F2E7E7",
"*	c #F2EFEF",
"=	c #F2F1F1",
"-	c #F2F2F2",
";	c #F3666D",
">	c #F37C81",
",	c #F37C82",
"'	c #F3A5A9",
")	c #F3A7AA",
"!	c #F3A7AB",
"~	c #F3A8AC",
"{	c #F3A9AC",
"]	c #F3A9AD",
"^	c #F3ADB0",
"/	c #F3AEB2",
"(	c #F3B0B3",
"_	c #F3B6B9",
":	c #F3B9BB",
"<	c #F3B9BC",
"[	c #F3BABD",
"}	c #F3BBBD",
"|	c #F3BBBE",
"1	c #F3BCBE",
"2	c #F46067",
"3	c #F46168",
"4	c #F46269",
"5	c #F4666D",
"6	c #F4676E",
"7	c #F4686E",
"8	c #F4686F",
"9	c #F47B81",
"0	c #F47C82",
"a	c #F9F9F9",
"----------------------------",
"----------------------------",
"----------------------------",
"----------------------------",
"----------------------------",
"----------------------------",
"----------------------------",
"----------$)0;;>!$----------",
"---------+62222226@---------",
"--------+3222222223@--------",
"-------$622822227227%-------",
"-------)222*:33_=222~-------",
"-------9222]-|}-/222>-------",
"-------62222^--(22226-------",
"-------622241--.42227-------",
"-------0222<-]]-[222>-------",
"-------!222$'22'$222{-------",
"-------$622222222228&-------",
"--------@3222222223#--------",
"---------@72222228#---------",
"----------%~,55,{&----------",
"----------------------------",
"----------------------------",
"----------------------------",
"----------------------------",
"----------------------------",
"----------------------------",
"----------------------------"};
