/* XPM */
static char * close_inactive_xpm[] = {
"28 28 33 1",
" 	c #AFB1B8",
".	c #B0B2B8",
"+	c #B1B3B9",
"@	c #B2B4BA",
"#	c #B2B5BB",
"$	c #B3B5BB",
"%	c #B3B6BC",
"&	c #BBBDC3",
"*	c #BCBEC3",
"=	c #C2C2C2",
"-	c #CFD0D3",
";	c #D0D1D4",
">	c #D0D1D5",
",	c #D1D2D5",
"'	c #D1D2D6",
")	c #D2D3D6",
"!	c #D3D4D7",
"~	c #D4D5D8",
"{	c #D6D7DA",
"]	c #D8D8DB",
"^	c #D8D9DB",
"/	c #D9D9DC",
"(	c #D9DADC",
"_	c #D9DADD",
":	c #DCDDDF",
"<	c #DDDDDF",
"[	c #EBECEC",
"}	c #ECECED",
"|	c #ECEDED",
"1	c #F0F1F1",
"2	c #F1F1F1",
"3	c #F2F2F2",
"4	c #F9F9F9",
"3333333333333333333333333333",
"3333333333333333333333333333",
"3333333333333333333333333333",
"3333333333333333333333333333",
"3333333333333333333333333333",
"3333333333333333333333333333",
"3333333333333333333333333333",
"3333333333[;&@@*,[3333333333",
"333333333:#      #:333333333",
"33333333:          :33333333",
"3333333[#  $    %  %|3333333",
"3333333;   1^..{2   >3333333",
"3333333&   )3_/3!   *3333333",
"3333333#    )33~    #3333333",
"3333333#   .(33:+   %3333333",
"3333333&   ]3''3/   *3333333",
"3333333,   [-  -[   >3333333",
"3333333[#          $}3333333",
"33333333:          <33333333",
"333333333:%      $<333333333",
"3333333333|>*##*>}3333333333",
"3333333333333333333333333333",
"3333333333333333333333333333",
"3333333333333333333333333333",
"3333333333333333333333333333",
"3333333333333333333333333333",
"3333333333333333333333333333",
"3333333333333333333333333333"};
