/* XPM */
static char * maximize_inactive_xpm[] = {
"28 28 12 1",
" 	c #AFB1B8",
".	c #BBBDC3",
"+	c #BCBEC3",
"@	c #C2C2C2",
"#	c #C3C5C9",
"$	c #C5C7CB",
"%	c #C6C7CC",
"&	c #F0F0F0",
"*	c #F0F1F1",
"=	c #F1F1F1",
"-	c #F2F2F2",
";	c #F9F9F9",
"----------------------------",
"----------------------------",
"----------------------------",
"----------------------------",
"----------------------------",
"----------------------------",
"----------------------------",
"----------------------------",
"----------------------------",
"----------------------------",
"----------------------------",
"------------*$  +-----------",
"-----------*-*$  -----------",
"----------=#&-=% -----------",
"----------= #&-=%-----------",
"----------=  $*-*-----------",
"-----------.  $*------------",
"----------------------------",
"----------------------------",
"----------------------------",
"----------------------------",
"----------------------------",
"----------------------------",
"----------------------------",
"----------------------------",
"----------------------------",
"----------------------------",
"----------------------------"};
