/* XPM */
static char * close_active_xpm[] = {
"28 28 41 1",
" 	c #14161B",
".	c #16171C",
"+	c #18181C",
"@	c #221B20",
"#	c #231B21",
"$	c #241C21",
"%	c #2B2D31",
"&	c #502B30",
"*	c #502C31",
"=	c #512C31",
"-	c #522C31",
";	c #592E34",
">	c #592F34",
",	c #5A2F34",
"'	c #5A2F35",
")	c #5B2F35",
"!	c #5C2F34",
"~	c #5F3036",
"{	c #673339",
"]	c #69343A",
"^	c #6C353A",
"/	c #6F363C",
"(	c #70373C",
"_	c #71373C",
":	c #72373C",
"<	c #73383D",
"[	c #74383D",
"}	c #74383E",
"|	c #A84A50",
"1	c #A94A50",
"2	c #AA4B50",
"3	c #AA4B51",
"4	c #C1535A",
"5	c #C25359",
"6	c #C35459",
"7	c #C3545A",
"8	c #C4545A",
"9	c #C9565C",
"0	c #CA565C",
"a	c #CB575D",
"b	c #CC575D",
"                            ",
"                            ",
"                            ",
"                            ",
"                            ",
"                            ",
"                            ",
"          $[2881<$          ",
"         =6bbbbbb6*         ",
"        =abbbbbbbba*        ",
"       $6bb4bbbb5bb5#       ",
"       [bbb+!00~.bbb:       ",
"       3bbb/ >, ]bbb1       ",
"       6bbbb^  {bbbb6       ",
"       6bbb0;  -9bbb5       ",
"       2bbb) (( 'bbb1       ",
"       <bbb$}bb}$bbb_       ",
"       $6bbbbbbbbbb4@       ",
"        *abbbbbbbba&        ",
"         *5bbbbbb4&         ",
"          #:|77|_@          ",
"                            ",
"                            ",
"                            ",
"                            ",
"                            ",
"                            ",
"                            "};
