/* XPM */
static char * close_inactive_xpm[] = {
"28 28 33 1",
" 	c #14161B",
".	c #14161C",
"+	c #16181D",
"@	c #191B20",
"#	c #191B21",
"$	c #292B31",
"%	c #292C31",
"&	c #2A2C31",
"*	c #2B2D31",
"=	c #2D2F34",
"-	c #2D2F35",
";	c #2D3035",
">	c #2E3035",
",	c #2F3037",
"'	c #313439",
")	c #32353A",
"!	c #33363B",
"~	c #34373C",
"{	c #35383D",
"]	c #36383C",
"^	c #36383D",
"/	c #37383E",
"(	c #494C51",
"_	c #4A4B50",
":	c #4A4B51",
"<	c #52545A",
"[	c #52555A",
"}	c #52555B",
"|	c #53565B",
"1	c #55575C",
"2	c #55575D",
"3	c #56575D",
"4	c #56585E",
"                            ",
"                            ",
"                            ",
"                            ",
"                            ",
"                            ",
"                            ",
"          #^(||:^#          ",
"         &}444444}%         ",
"        &3444444443%        ",
"       #}44<4444[44[@       ",
"       ^444+>33,.444^       ",
"       (444~ =- )444:       ",
"       }4444!  '4444}       ",
"       }4442=  &1444[       ",
"       (444> {{ ;444:       ",
"       ^444#/44/#444]       ",
"       #}4444444444<@       ",
"        %3444444443$        ",
"         %[444444<$         ",
"          @^_}}_]@          ",
"                            ",
"                            ",
"                            ",
"                            ",
"                            ",
"                            ",
"                            "};
