/* XPM */
static char * hide_pressed_xpm[] = {
"28 28 34 1",
" 	c #14161B",
".	c #14171D",
"+	c #15181E",
"@	c #15191E",
"#	c #15191F",
"$	c #1E3E57",
"%	c #1E3F58",
"&	c #1E4059",
"*	c #1E415A",
"=	c #1E425B",
"-	c #1F4058",
";	c #1F425C",
">	c #1F425D",
",	c #255B82",
"'	c #255C82",
")	c #255C83",
"!	c #255D83",
"~	c #265D84",
"{	c #286996",
"]	c #286A97",
"^	c #296B98",
"/	c #296C98",
"(	c #2B2D31",
"_	c #2F83BD",
":	c #2F84BE",
"<	c #2F85BF",
"[	c #3086C0",
"}	c #3086C1",
"|	c #3087C2",
"1	c #3291D0",
"2	c #3392D2",
"3	c #3392D3",
"4	c #3498DB",
"5	c #FFFFFF",
"                            ",
"                            ",
"                            ",
"                            ",
"         #>^:33:^;#         ",
"        &|44444444}-        ",
"      +~444444444444!.      ",
"      ~44444444444444'      ",
"     &4444444444444444%     ",
"    #}4444444444444444|#    ",
"    >444444444444444444=    ",
"    /444444444444444444]    ",
"    <444444444444444444:    ",
"    24444455555555444442    ",
"    24444455555555444441    ",
"    :444444444444444444_    ",
"    ^444444444444444444{    ",
"    ;444444444444444444*    ",
"    @[4444444444444444|#    ",
"     -4444444444444444$     ",
"      !44444444444444,      ",
"      .)444444444444'.      ",
"        %[44444444[$        ",
"         @=]_22_]*@         ",
"                            ",
"                            ",
"                            ",
"                            "};
