/* XPM */
static char * maximize_pressed_xpm[] = {
"28 28 43 1",
" 	c #14161B",
".	c #14171D",
"+	c #15181E",
"@	c #15191E",
"#	c #15191F",
"$	c #1E3E57",
"%	c #1E3F58",
"&	c #1E4059",
"*	c #1E415A",
"=	c #1E425B",
"-	c #1F4058",
";	c #1F425C",
">	c #1F425D",
",	c #255B82",
"'	c #255C82",
")	c #255C83",
"!	c #255D83",
"~	c #265D84",
"{	c #286996",
"]	c #286A97",
"^	c #296B98",
"/	c #296C98",
"(	c #2B2D31",
"_	c #2F83BD",
":	c #2F84BE",
"<	c #2F85BF",
"[	c #3086C0",
"}	c #3086C1",
"|	c #3087C2",
"1	c #3291D0",
"2	c #3392D2",
"3	c #3392D3",
"4	c #3498DB",
"5	c #54A8E1",
"6	c #58AAE1",
"7	c #5AABE2",
"8	c #5DADE2",
"9	c #C6E2F5",
"0	c #ECF5FC",
"a	c #EEF7FC",
"b	c #F0F7FC",
"c	c #F2F9FD",
"d	c #FFFFFF",
"                            ",
"                            ",
"                            ",
"                            ",
"         #>^:33:^;#         ",
"        &|44444444}-        ",
"      +~444444444444!.      ",
"      ~44444444444444'      ",
"     &4444444444444444%     ",
"    #}4444444444444444|#    ",
"    >44444446addd944444=    ",
"    /444444446addd44444]    ",
"    <4444474446add44444:    ",
"    244444c844450d444442    ",
"    244444dc844450444441    ",
"    :44444ddb7444644444_    ",
"    ^44444dddb744444444{    ",
"    ;444449dddb74444444*    ",
"    @[4444444444444444|#    ",
"     -4444444444444444$     ",
"      !44444444444444,      ",
"      .)444444444444'.      ",
"        %[44444444[$        ",
"         @=]_22_]*@         ",
"                            ",
"                            ",
"                            ",
"                            "};
