/* XPM */
static char * close_inactive_xpm[] = {
"28 28 34 1",
" 	c #141A1B",
".	c #192021",
"+	c #363D3D",
"@	c #495151",
"#	c #535A5B",
"$	c #4A5051",
"%	c #2A3131",
"&	c #52595B",
"*	c #565D5E",
"=	c #293131",
"-	c #565D5D",
";	c #52595A",
">	c #191F20",
",	c #161C1D",
"'	c #2E3435",
")	c #565C5D",
"!	c #2F3637",
"~	c #141B1C",
"{	c #363C3D",
"]	c #343B3C",
"^	c #2D3334",
"/	c #2D3335",
"(	c #32393A",
"_	c #333A3B",
":	c #313839",
"<	c #555C5D",
"[	c #555C5C",
"}	c #353C3D",
"|	c #2D3435",
"1	c #373C3E",
"2	c #363C3C",
"3	c #293031",
"4	c #4A5050",
"5	c #525A5B",
"                            ",
"                            ",
"                            ",
"                            ",
"                            ",
"                            ",
"                            ",
"          .+@##$+.          ",
"         %&******&=         ",
"        %-********-=        ",
"       .&**;****;**;>       ",
"       +***,'))!~***{       ",
"       @***] ^/ (***$       ",
"       &****_  :****&       ",
"       &***<^  %[***;       ",
"       @***' }} |***$       ",
"       +***.1**1.***2       ",
"       .&**********;>       ",
"        =-********-3        ",
"         =;******;3         ",
"          >{45542>          ",
"                            ",
"                            ",
"                            ",
"                            ",
"                            ",
"                            ",
"                            "};
