/* XPM */
static char * close_pressed_xpm[] = {
"28 28 53 1",
" 	c #141A1B",
".	c #1A1A1B",
"+	c #5F2125",
"@	c #A4282E",
"#	c #CF2D34",
"$	c #E82F38",
"%	c #5E2125",
"&	c #5B2225",
"*	c #D42D35",
"=	c #F13039",
"-	c #D32D35",
";	c #5B2124",
">	c #171B1C",
",	c #8D262B",
"'	c #8C262B",
")	c #161A1B",
"!	c #8A262B",
"~	c #5A2125",
"{	c #D52D35",
"]	c #151A1B",
"^	c #471F22",
"/	c #DF2E36",
"(	c #E12F37",
"_	c #4B1F22",
":	c #5D2125",
"<	c #3B1E20",
"[	c #E02E37",
"}	c #3D1E21",
"|	c #371E20",
"1	c #A2282F",
"2	c #D02D35",
"3	c #D92E36",
"4	c #331D1F",
"5	c #2F1D1F",
"6	c #D62D35",
"7	c #E72F37",
"8	c #DC2D37",
"9	c #381E20",
"0	c #2E1D1F",
"a	c #DE2E36",
"b	c #3B1D20",
"c	c #351D1F",
"d	c #DA2E36",
"e	c #E52E37",
"f	c #DD2E36",
"g	c #3A1E20",
"h	c #3F1E21",
"i	c #5C2125",
"j	c #191A1B",
"k	c #D22D35",
"l	c #592125",
"m	c #8B262B",
"n	c #CE2C34",
"                            ",
"                            ",
"                            ",
"                            ",
"         .+@#$$#@%.         ",
"        &*========-;        ",
"      >,============')      ",
"      ,==============!      ",
"     &================~     ",
"    .-================{.    ",
"    +=====]^/==(_ =====:    ",
"    @=====< </[} |=====1    ",
"    2=====34 << 56=====#    ",
"    7======89  0*======7    ",
"    7======ab  cd======e    ",
"    2=====fg || |8=====#    ",
"    @=====h |88| }=====1    ",
"    %=====]}8==8} =====i    ",
"    jk================*.    ",
"     ;================l     ",
"      '==============!      ",
"      )m============!)      ",
"        ~k========kl        ",
"         j:1n77n1ij         ",
"                            ",
"                            ",
"                            ",
"                            "};
