/* XPM */
static char * hide_pressed_xpm[] = {
"28 28 31 1",
" 	c #141A1B",
".	c #151D1E",
"+	c #1D4E46",
"@	c #257E6C",
"#	c #2A9C85",
"$	c #2DAC92",
"%	c #1D4D45",
"&	c #1C4C43",
"*	c #2B9E88",
"=	c #2EB398",
"-	c #2B9E87",
";	c #1D4C43",
">	c #151C1D",
",	c #226E5F",
"'	c #141B1C",
")	c #226C5E",
"!	c #1C4A43",
"~	c #2B9F87",
"{	c #1C4D45",
"]	c #257E6D",
"^	c #257C6C",
"/	c #2A9D86",
"(	c #FFFFFF",
"_	c #2CAA91",
":	c #2A9B84",
"<	c #247B6B",
"[	c #1C4C44",
"}	c #151D1D",
"|	c #1C4942",
"1	c #226B5E",
"2	c #226D5E",
"                            ",
"                            ",
"                            ",
"                            ",
"         .+@#$$#@%.         ",
"        &*========-;        ",
"      >,============,'      ",
"      ,==============)      ",
"     &================!     ",
"    .-================~.    ",
"    +=================={    ",
"    ]==================^    ",
"    /==================#    ",
"    $=====((((((((=====$    ",
"    $=====((((((((=====_    ",
"    #==================:    ",
"    @==================<    ",
"    %==================[    ",
"    }-================*.    ",
"     ;================|     ",
"      ,==============1      ",
"      '2============)'      ",
"        !-========-|        ",
"         }{^:$$:^[}         ",
"                            ",
"                            ",
"                            ",
"                            "};
