/* XPM */
static char * maximize_pressed_xpm[] = {
"28 28 41 1",
" 	c #141A1B",
".	c #151D1E",
"+	c #1D4E46",
"@	c #257E6C",
"#	c #2A9C85",
"$	c #2DAC92",
"%	c #1D4D45",
"&	c #1C4C43",
"*	c #2B9E88",
"=	c #2EB398",
"-	c #2B9E87",
";	c #1D4C43",
">	c #151C1D",
",	c #226E5F",
"'	c #141B1C",
")	c #226C5E",
"!	c #1C4A43",
"~	c #2B9F87",
"{	c #53C0AA",
"]	c #EEF9F7",
"^	c #FFFFFF",
"/	c #C4EAE2",
"(	c #1C4D45",
"_	c #257E6D",
":	c #257C6C",
"<	c #2A9D86",
"[	c #55C1AB",
"}	c #F2FAF9",
"|	c #59C2AD",
"1	c #4FBFA8",
"2	c #EBF8F5",
"3	c #2CAA91",
"4	c #EFF9F7",
"5	c #2A9B84",
"6	c #247B6B",
"7	c #C5EAE2",
"8	c #1C4C44",
"9	c #151D1D",
"0	c #1C4942",
"a	c #226B5E",
"b	c #226D5E",
"                            ",
"                            ",
"                            ",
"                            ",
"         .+@#$$#@%.         ",
"        &*========-;        ",
"      >,============,'      ",
"      ,==============)      ",
"     &================!     ",
"    .-================~.    ",
"    +======={]^^^/=====(    ",
"    _========{]^^^=====:    ",
"    <=====[==={]^^=====#    ",
"    $=====}|===12^=====$    ",
"    $=====^}|===12=====3    ",
"    #=====^^4[==={=====5    ",
"    @=====^^^4[========6    ",
"    %=====7^^^4[=======8    ",
"    9-================*.    ",
"     ;================0     ",
"      ,==============a      ",
"      'b============)'      ",
"        !-========-0        ",
"         9(:5$$5:89         ",
"                            ",
"                            ",
"                            ",
"                            "};
