/* XPM */
static char * close_pressed_xpm[] = {
"28 28 56 1",
" 	c #1A1A1A",
".	c #1B1A1A",
"+	c #1C1A1A",
"@	c #1D1B1B",
"#	c #1E1A1A",
"$	c #1F1A1A",
"%	c #303030",
"&	c #331D1E",
"*	c #351D1E",
"=	c #381D1E",
"-	c #3A1D1E",
";	c #3C1E1F",
">	c #3D1E1F",
",	c #3F1E20",
"'	c #401D1F",
")	c #401E1F",
"!	c #401E20",
"~	c #421E20",
"{	c #441E20",
"]	c #4C1F21",
"^	c #4F1F21",
"/	c #5D2124",
"(	c #5E2124",
"_	c #5F2124",
":	c #602124",
"<	c #602225",
"[	c #612124",
"}	c #622124",
"|	c #632124",
"1	c #8D262A",
"2	c #8D262B",
"3	c #8E262B",
"4	c #8F262B",
"5	c #90262B",
"6	c #A4282E",
"7	c #A6282E",
"8	c #CF2C34",
"9	c #D02D34",
"0	c #D12D35",
"a	c #D32D35",
"b	c #D42D34",
"c	c #D42D35",
"d	c #D52D35",
"e	c #D62D35",
"f	c #DA2E36",
"g	c #DB2E36",
"h	c #DC2D36",
"i	c #DD2E36",
"j	c #DE2E36",
"k	c #DF2E36",
"l	c #E02E37",
"m	c #E22F37",
"n	c #E52E37",
"o	c #E72F37",
"p	c #E82F38",
"q	c #F13039",
"                            ",
"                            ",
"                            ",
"                            ",
"         $|79pp97}$         ",
"        <bqqqqqqqqc_        ",
"      @5qqqqqqqqqqqq4+      ",
"      5qqqqqqqqqqqqqq2      ",
"     <qqqqqqqqqqqqqqqq(     ",
"    $cqqqqqqqqqqqqqqqqd$    ",
"    |qqqqq.]kqqm^ qqqqq[    ",
"    7qqqqq! !kl~ ;qqqqq6    ",
"    0qqqqqf= !) *eqqqqq9    ",
"    oqqqqqqh>  &bqqqqqqo    ",
"    oqqqqqqj'  -gqqqqqqn    ",
"    0qqqqqi, ;; ;hqqqqq9    ",
"    7qqqqq{ ;hh; ~qqqqq6    ",
"    }qqqqq.~hqqh~ qqqqq:    ",
"    #aqqqqqqqqqqqqqqqqb$    ",
"     _qqqqqqqqqqqqqqqq/     ",
"      4qqqqqqqqqqqqqq1      ",
"      +3qqqqqqqqqqqq2+      ",
"        (aqqqqqqqqa/        ",
"         #[68oo86:#         ",
"                            ",
"                            ",
"                            ",
"                            "};
