/* XPM */
static char * hide_pressed_xpm[] = {
"28 28 27 1",
" 	g #1A1A1A",
".	g #1E1E1E",
"+	g #5C5C5C",
"@	g #999999",
"#	g #C0C0C0",
"$	g #D5D5D5",
"%	g #989898",
"&	g #595959",
"*	g #C2C2C2",
"=	g #DDDDDD",
"-	g #C1C1C1",
";	g #575757",
">	g #1C1C1C",
",	g #838383",
"'	g #C4C4C4",
")	g #5B5B5B",
"!	g #979797",
"~	g #D4D4D4",
"{	g #D2D2D2",
"]	g #969696",
"^	g #5A5A5A",
"/	g #DCDCDC",
"(	g #565656",
"_	g #818181",
":	g #828282",
"<	g #BFBFBF",
"[	g #BEBEBE",
"                            ",
"                            ",
"                            ",
"                            ",
"         .+@#$$#%+.         ",
"        &*========-;        ",
"      >,============,>      ",
"      ,==============,      ",
"     &================;     ",
"    .*================'.    ",
"    +==================)    ",
"    @==================!    ",
"    -==================#    ",
"    $=====        =====~    ",
"    ~=====        ====={    ",
"    -==================#    ",
"    %==================]    ",
"    +==================^    ",
"    .-================-.    ",
"     ;===============/(     ",
"      ,==============_      ",
"      >,===========/:>      ",
"        ;-========-(        ",
"         .)%<$$[!^.         ",
"                            ",
"                            ",
"                            ",
"                            "};
