/* XPM */
static char * maximize_active_xpm[] = {
"28 28 10 1",
" 	c #1A1A1A",
".	c #1B1B1B",
"+	c #1D1D1D",
"@	c #303030",
"#	c #636467",
"$	c #66686B",
"%	c #696A6D",
"&	c #747579",
"*	c #75767A",
"=	c #8A8C90",
"                            ",
"                            ",
"                            ",
"                            ",
"                            ",
"                            ",
"                            ",
"                            ",
"                            ",
"                            ",
"                            ",
"            +$==&           ",
"           + +$==           ",
"          .%+ .#=           ",
"          .=%+ .#           ",
"          .==$+ +           ",
"           *==$+            ",
"                            ",
"                            ",
"                            ",
"                            ",
"                            ",
"                            ",
"                            ",
"                            ",
"                            ",
"                            ",
"                            "};
