/* XPM */
static char * maximize_inactive_xpm[] = {
"28 28 10 1",
" 	c #1A1A1A",
".	c #1B1B1B",
"+	c #1C1C1C",
"@	c #303030",
"#	c #454545",
"$	c #464646",
"%	c #484848",
"&	c #4F4F4F",
"*	c #505050",
"=	c #5C5C5C",
"                            ",
"                            ",
"                            ",
"                            ",
"                            ",
"                            ",
"                            ",
"                            ",
"                            ",
"                            ",
"                            ",
"            +$==&           ",
"           + +$==           ",
"           %+ .#=           ",
"           =%+ .#           ",
"           ==$+ +           ",
"           *==$+            ",
"                            ",
"                            ",
"                            ",
"                            ",
"                            ",
"                            ",
"                            ",
"                            ",
"                            ",
"                            ",
"                            "};
